<svg xmlns="http://www.w3.org/2000/svg" viewBox="0 0 328.68 316"><defs><style>.cls-1{fill:#e52323;}.cls-2{fill:#fff;}</style></defs><title>Asset 1</title><g id="Layer_2" data-name="Layer 2"><g id="Layer_1-2" data-name="Layer 1"><path class="cls-1" d="M315.55,143h-85V262.67A55.7,55.7,0,0,0,328.68,226l-.77-70.76A12.36,12.36,0,0,0,315.55,143Z"/><circle class="cls-1" cx="272.07" cy="77.94" r="44.26"/><path class="cls-1" d="M20,288.54l154.43,27.09a24.19,24.19,0,0,0,28.37-23.83V24.2A24.19,24.19,0,0,0,174.44.37L20,27.46A24.19,24.19,0,0,0,0,51.29V264.71A24.19,24.19,0,0,0,20,288.54Z"/><path class="cls-2" d="M138.77,160.53,64.26,205a2.89,2.89,0,0,1-4.38-2.48V113.53A2.9,2.9,0,0,1,64.26,111l74.51,44.51A2.9,2.9,0,0,1,138.77,160.53Z"/></g></g></svg>